<svg width="20" height="21" viewBox="0 0 20 21" fill="none" xmlns="http://www.w3.org/2000/svg">
<path d="M10 0.500031C7.28417 0.500031 6.94362 0.511554 5.87702 0.560226C4.81264 0.608781 4.08568 0.777805 3.44958 1.02503C2.792 1.28058 2.23431 1.62253 1.6784 2.17847C1.12247 2.73438 0.780511 3.29207 0.524963 3.94965C0.277735 4.58571 0.108711 5.31267 0.0601565 6.37705C0.0114844 7.44365 0 7.7842 0 10.5001C0 13.2159 0.0114844 13.5564 0.0601565 14.623C0.108711 15.6874 0.277735 16.4144 0.524963 17.0504C0.780511 17.708 1.12247 18.2657 1.6784 18.8217C2.23431 19.3776 2.792 19.7195 3.44958 19.9751C4.08568 20.2223 4.81264 20.3913 5.87702 20.4399C6.94362 20.4885 7.28417 20.5 10 20.5C12.7158 20.5 13.0564 20.4885 14.123 20.4399C15.1874 20.3913 15.9143 20.2223 16.5504 19.9751C17.208 19.7195 17.7657 19.3776 18.3216 18.8217C18.8775 18.2657 19.2195 17.708 19.475 17.0504C19.7222 16.4144 19.8913 15.6874 19.9398 14.623C19.9885 13.5564 20 13.2159 20 10.5001C20 7.7842 19.9885 7.44365 19.9398 6.37705C19.8913 5.31267 19.7222 4.58571 19.475 3.94965C19.2195 3.29207 18.8775 2.73438 18.3216 2.17847C17.7657 1.62253 17.208 1.28058 16.5504 1.02503C15.9143 0.777805 15.1874 0.608781 14.123 0.560226C13.0564 0.511554 12.7158 0.500031 10 0.500031V0.500031ZM10 2.30187C12.6701 2.30187 12.9864 2.31203 14.0409 2.36015C15.0158 2.40465 15.5453 2.56754 15.8977 2.70445C16.3645 2.88586 16.6976 3.10258 17.0475 3.4525C17.3975 3.80243 17.6142 4.13559 17.7956 4.60231C17.9325 4.9547 18.0954 5.48419 18.1399 6.45916C18.188 7.51365 18.1982 7.82994 18.1982 10.5001C18.1982 13.1702 18.188 13.4864 18.1399 14.5409C18.0954 15.5159 17.9325 16.0454 17.7956 16.3977C17.6142 16.8645 17.3975 17.1976 17.0475 17.5476C16.6976 17.8975 16.3645 18.1142 15.8977 18.2956C15.5453 18.4326 15.0158 18.5955 14.0409 18.6399C12.9866 18.688 12.6703 18.6982 10 18.6982C7.32968 18.6982 7.0135 18.688 5.95912 18.6399C4.98416 18.5955 4.45467 18.4326 4.10228 18.2956C3.63552 18.1142 3.3024 17.8975 2.95243 17.5476C2.60251 17.1976 2.38579 16.8645 2.20442 16.3977C2.06747 16.0454 1.90458 15.5159 1.86009 14.5409C1.81196 13.4864 1.8018 13.1702 1.8018 10.5001C1.8018 7.82994 1.81196 7.51365 1.86009 6.45916C1.90458 5.48419 2.06747 4.9547 2.20442 4.60231C2.38579 4.13559 2.60251 3.80243 2.95243 3.4525C3.3024 3.10258 3.63552 2.88586 4.10228 2.70445C4.45467 2.56754 4.98416 2.40465 5.95912 2.36015C7.01362 2.31203 7.32991 2.30187 10 2.30187Z" fill="url(#paint0_linear_2_46)"/>
<path d="M10 13.833C8.15906 13.833 6.66667 12.3406 6.66667 10.4997C6.66667 8.65876 8.15906 7.16637 10 7.16637C11.8409 7.16637 13.3333 8.65876 13.3333 10.4997C13.3333 12.3406 11.8409 13.833 10 13.833ZM10 5.36456C7.16394 5.36456 4.86487 7.66363 4.86487 10.4997C4.86487 13.3358 7.16394 15.6348 10 15.6348C12.8361 15.6348 15.1351 13.3358 15.1351 10.4997C15.1351 7.66363 12.8361 5.36456 10 5.36456Z" fill="#C4C4C4"/>
<path d="M16.5379 5.16194C16.5379 5.82472 16.0007 6.36195 15.3379 6.36195C14.6752 6.36195 14.1379 5.82472 14.1379 5.16194C14.1379 4.4992 14.6752 3.96198 15.3379 3.96198C16.0007 3.96198 16.5379 4.4992 16.5379 5.16194Z" fill="#C4C4C4"/>
<defs>
<linearGradient id="paint0_linear_2_46" x1="11.7504" y1="-0.559673" x2="5.90596" y2="18.749" gradientUnits="userSpaceOnUse">
<stop stop-color="#CACEF6"/>
<stop offset="0.26" stop-color="white"/>
<stop offset="0.66" stop-color="white"/>
<stop offset="1" stop-color="#F9EBC7"/>
</linearGradient>
</defs>
</svg>
