<svg width="22" height="17" viewBox="0 0 22 17" fill="none" xmlns="http://www.w3.org/2000/svg">
<path d="M7.29726 16.7312C15.0585 16.7312 19.3023 10.2999 19.3023 4.72618C19.3023 4.54243 19.3023 4.35868 19.2935 4.18368C20.116 3.58868 20.8335 2.84493 21.4023 1.99618C20.6498 2.32868 19.836 2.55618 18.9785 2.66118C19.8535 2.13618 20.5185 1.31368 20.8335 0.324926C20.0198 0.806176 19.1185 1.15618 18.156 1.34868C17.386 0.526177 16.2923 0.0186768 15.076 0.0186768C12.7485 0.0186768 10.8585 1.90868 10.8585 4.23618C10.8585 4.56868 10.8935 4.89243 10.9723 5.19868C7.46351 5.02368 4.35726 3.34368 2.27476 0.788677C1.91601 1.40993 1.70601 2.13618 1.70601 2.90618C1.70601 4.36743 2.44976 5.66243 3.58726 6.41493C2.89601 6.39743 2.24851 6.20493 1.67976 5.88993V5.94243C1.67976 7.98993 3.13226 9.68743 5.06601 10.0812C4.71601 10.1774 4.33976 10.2299 3.95476 10.2299C3.68351 10.2299 3.42101 10.2037 3.15851 10.1512C3.69226 11.8312 5.24976 13.0474 7.09601 13.0824C5.65226 14.2112 3.83226 14.8849 1.85476 14.8849C1.51351 14.8849 1.18101 14.8674 0.848511 14.8237C2.69476 16.0312 4.91726 16.7312 7.29726 16.7312Z" fill="#C4C4C4"/>
</svg>
